<svg xmlns="http://www.w3.org/2000/svg"
         xmlns:xlink="http://www.w3.org/1999/xlink">


    <defs>
      <linearGradient id="myLinearGradient1"
                      x1="0%" y1="0%"
                      x2="100%" y2="0%"
                      spreadMethod="pad">
        <stop offset="15%" stop-color="#FF0500" stop-opacity="1"/>
        <stop offset="50%" stop-color="#FFF600" stop-opacity="1"/>

        <stop offset="85%" stop-color="#4DE300" stop-opacity="1"/>

      </linearGradient>

    </defs>

    <rect x="0" y="10" width="250" height="7"
       style="fill:url(#myLinearGradient1);
              stroke-width: 1;" />
	<line x1="10" y1="5" x2="10" y2="22" style="stroke:rgb(56,56,56);stroke-width:1.5"/>
	<line x1="33" y1="7" x2="33" y2="19" style="stroke:rgb(56,56,56);stroke-width:1"/>
	<line x1="56" y1="5" x2="56" y2="22" style="stroke:rgb(56,56,56);stroke-width:1.5"/>
	<line x1="79" y1="7" x2="79" y2="19" style="stroke:rgb(56,56,56);stroke-width:1"/>
	<line x1="102" y1="5" x2="102" y2="22" style="stroke:rgb(56,56,56);stroke-width:1.5"/>
	<line x1="125" y1="7" x2="125" y2="19" style="stroke:rgb(56,56,56);stroke-width:1"/>
	<line x1="148" y1="5" x2="148" y2="22" style="stroke:rgb(56,56,56);stroke-width:1.5"/>
	<line x1="171" y1="7" x2="171" y2="19" style="stroke:rgb(56,56,56);stroke-width:1"/>
	<line x1="194" y1="5" x2="194" y2="22" style="stroke:rgb(56,56,56);stroke-width:1.5"/>
	<line x1="217" y1="7" x2="217" y2="19" style="stroke:rgb(56,56,56);stroke-width:1"/>
	<line x1="240" y1="5" x2="240" y2="22" style="stroke:rgb(56,56,56);stroke-width:1.5"/>
	
	<line x1="123" y1="0" x2="123" y2="25" style="stroke:rgb(0,0,0);stroke-width:3"/>
	<line x1="120" y1="0" x2="126" y2="0" style="stroke:rgb(0,0,0);stroke-width:1"/>
	<line x1="120" y1="25" x2="126" y2="25" style="stroke:rgb(0,0,0);stroke-width:1"/>
    </svg>